<?xml version="1.0" encoding="utf-8"?>
<!-- Generator: Adobe Illustrator 25.2.0, SVG Export Plug-In . SVG Version: 6.00 Build 0)  -->
<svg version="1.1" id="Layer_2_1_" xmlns="http://www.w3.org/2000/svg" xmlns:xlink="http://www.w3.org/1999/xlink" x="0px" y="0px"
	 viewBox="0 0 199.4 199.4" style="enable-background:new 0 0 199.4 199.4;" xml:space="preserve">
<style type="text/css">
	.st0{fill:#00BFD8;}
</style>
<path class="st0" d="M182.7,48.9L135.3,1.5c-1-1-2.3-1.5-3.7-1.5h-100c-8.7,0-15.8,7.1-15.8,15.8v168.4c0,8.7,7.1,15.8,15.8,15.8
	h136.8c8.7,0,15.8-7.1,15.8-15.8V52.6C184.2,51.2,183.7,49.9,182.7,48.9z M171.5,52.6h-34.7c-2.9,0-5.3-2.4-5.3-5.3V12.7L171.5,52.6
	z M173.7,184.2c0,2.9-2.4,5.3-5.3,5.3H31.6c-2.9,0-5.3-2.4-5.3-5.3V15.8c0-2.9,2.4-5.3,5.3-5.3h89.5v36.8c0,8.7,7.1,15.8,15.8,15.8
	h36.8V184.2z"/>
<path class="st0" d="M98.1,48.8H40.9c-1.1,0-1.9-1.8-1.9-4s0.9-4,1.9-4h57.2c1.1,0,1.9,1.8,1.9,4S99.1,48.8,98.1,48.8z"/>
<path class="st0" d="M97.5,73H41.5c-1.4,0-2.5-1.8-2.5-4s1.1-4,2.5-4h55.9c1.4,0,2.5,1.8,2.5,4S98.9,73,97.5,73z"/>
<path class="st0" d="M157.2,97.2H42.8c-2.1,0-3.8-1.8-3.8-4s1.7-4,3.8-4h114.4c2.1,0,3.8,1.8,3.8,4S159.3,97.2,157.2,97.2z"/>
<path class="st0" d="M148,121.4H42.5c-1.9,0-3.5-1.8-3.5-4s1.6-4,3.5-4H148c1.9,0,3.5,1.8,3.5,4S150,121.4,148,121.4z"/>
<path class="st0" d="M132.9,145.5H43.1c-2.3,0-4.1-1.8-4.1-4s1.8-4,4.1-4h89.8c2.3,0,4.1,1.8,4.1,4S135.2,145.5,132.9,145.5z"/>
<path class="st0" d="M157.2,169.7H42.8c-2.1,0-3.8-1.8-3.8-4c0-2.2,1.7-4,3.8-4h114.4c2.1,0,3.8,1.8,3.8,4
	C161,167.9,159.3,169.7,157.2,169.7z"/>
</svg>
