<?xml version="1.0" encoding="utf-8"?>
<!-- Generator: Adobe Illustrator 25.2.0, SVG Export Plug-In . SVG Version: 6.00 Build 0)  -->
<svg version="1.1" id="Layer_3" xmlns="http://www.w3.org/2000/svg" xmlns:xlink="http://www.w3.org/1999/xlink" x="0px" y="0px"
	 viewBox="0 0 199.3 199.2" style="enable-background:new 0 0 199.3 199.2;" xml:space="preserve">
<style type="text/css">
	.st0{fill:#00BFD8;}
</style>
<path class="st0" d="M135,90c-13.8,0-25-11.2-25-25s11.2-25,25-25s25,11.2,25,25S148.8,90,135,90z M135,50c-8.3,0-15,6.7-15,15
	s6.7,15,15,15s15-6.7,15-15S143.3,50,135,50z"/>
<path class="st0" d="M5,200c-1.3,0-2.6-0.5-3.5-1.5c-1.4-1.4-1.8-3.4-1.2-5.2c15.4-42.3,31.6-63.8,48.1-63.8
	c5.5,0,10.5,2.3,15.2,6.9c7.3,7.3,7.5,14.5,6.5,19.3c-3.3,15.1-24.6,29.9-63.3,43.9C6.2,199.9,5.6,200,5,200L5,200z M48.4,139.5
	c-5,0-10.8,4.3-16.9,12.6c-6,8.1-12,19.6-17.9,34.3c13.4-5.4,24.1-10.8,32-16.3c10.7-7.3,13.8-13,14.6-16.5
	c0.8-3.5-0.5-6.8-3.8-10.1C53.8,140.9,51.1,139.5,48.4,139.5L48.4,139.5z"/>
<path class="st0" d="M195,0c-26,0-49.1,4.4-68.7,13.1C110.1,20.3,96.2,30.3,85,43c-2.1,2.4-4,4.8-5.8,7.2c-8.6,0.6-17.4,4-26.2,10.2
	C45.5,65.5,38,72.8,30.7,81.9c-12.3,15.2-19.9,30.3-20.2,30.9c-1.1,2.2-0.4,4.9,1.5,6.3c0.9,0.6,1.9,1,2.9,1c1.3,0,2.6-0.5,3.5-1.5
	c0.1-0.1,4.8-4.8,13-9.4c6.7-3.8,17.1-8.3,29.6-9.1c3.2,8.1,12.2,17.8,16.6,22.2c4.4,4.4,14.1,13.4,22.2,16.6
	c-0.8,12.5-5.3,22.9-9.1,29.6c-4.6,8.2-9.3,12.9-9.4,13c-1.7,1.7-2,4.5-0.5,6.5c1,1.3,2.5,2.1,4.1,2.1c0.8,0,1.5-0.2,2.2-0.5
	c0.6-0.3,15.7-7.9,30.9-20.2c9.1-7.3,16.3-14.8,21.6-22.3c6.2-8.8,9.6-17.6,10.2-26.2c2.4-1.8,4.8-3.7,7.2-5.8
	c12.7-11.2,22.7-25.1,29.9-41.3C195.6,54.1,200,31,200,5V0L195,0L195,0z M31.1,98.1c9.5-13.8,24.1-31,40.5-36.4
	c-6.5,11.4-9.9,21.8-11.1,28.4C48.9,90.9,39,94.2,31.1,98.1z M101.9,168.9c3.9-7.9,7.2-17.9,7.9-29.4c6.6-1.2,17.1-4.6,28.4-11.1
	C132.9,144.8,115.7,159.4,101.9,168.9L101.9,168.9z M150.4,107.5C129.6,125.9,108.1,130,105,130c0,0-2.1,0-7.6-3.9
	c-3.9-2.7-8.3-6.6-12.6-10.9c-4.3-4.3-8.1-8.8-10.9-12.6C70.1,97.1,70,95,70,95c0-3.1,4.2-24.6,22.5-45.4
	c22-24.9,55.6-38.5,97.4-39.5C188.9,52,175.3,85.6,150.4,107.5L150.4,107.5z"/>
</svg>
